<svg xmlns="http://www.w3.org/2000/svg" viewBox="0 0 100 120" width="100" height="120">
  <rect x="5" y="15" width="90" height="105" rx="10" fill="#000000" opacity="0.3" />

  <rect x="0" y="30" width="10" height="60" rx="3" fill="#1F2937" />
  <rect x="90" y="30" width="10" height="60" rx="3" fill="#1F2937" />

  <rect x="10" y="10" width="80" height="100" rx="12" fill="#FBBF24" />

  <path d="M 10 30 L 90 30 L 90 20 Q 90 10 80 10 L 20 10 Q 10 10 10 20 Z" fill="#374151" />

  <rect x="20" y="40" width="60" height="45" rx="5" fill="#4B5563" />
  <rect x="25" y="45" width="50" height="35" rx="3" fill="#1F2937" />

  <circle cx="50" cy="62" r="14" fill="#000000" />
  <circle cx="50" cy="62" r="8" fill="#3B82F6">
    <animate attributeName="opacity" values="0.3; 1; 0.3" dur="1.5s" repeatCount="indefinite" />
  </circle>

  <g transform="translate(10, 95)">
    <rect x="0" y="0" width="80" height="15" fill="#111827" />
    <path d="M 0 15 L 15 0 L 25 0 L 10 15 Z" fill="#F59E0B" />
    <path d="M 20 15 L 35 0 L 45 0 L 30 15 Z" fill="#F59E0B" />
    <path d="M 40 15 L 55 0 L 65 0 L 50 15 Z" fill="#F59E0B" />
    <path d="M 60 15 L 75 0 L 80 0 L 80 5 L 70 15 Z" fill="#F59E0B" />
  </g>

  <rect x="35" y="103" width="30" height="4" rx="2" fill="#10B981" />
  
  <circle cx="15" cy="20" r="2" fill="#9CA3AF" />
  <circle cx="85" cy="20" r="2" fill="#9CA3AF" />
</svg>
